<?xml version="1.0" encoding="UTF-8" standalone="no"?><!DOCTYPE svg PUBLIC "-//W3C//DTD SVG 1.1//EN" "http://www.w3.org/Graphics/SVG/1.1/DTD/svg11.dtd"><svg width="100%" height="100%" viewBox="0 0 32 32" version="1.1" xmlns="http://www.w3.org/2000/svg" xmlns:xlink="http://www.w3.org/1999/xlink" xml:space="preserve" xmlns:serif="http://www.serif.com/" style="fill-rule:evenodd;clip-rule:evenodd;stroke-linejoin:round;stroke-miterlimit:2;"><rect id="ICON" x="0" y="0" width="32" height="32" style="fill:none;"/><g><g><path d="M7.826,11.062l-0,16.301c-0,0.194 -0.158,0.352 -0.351,0.352l-3.124,-0c-0.194,-0 -0.351,-0.158 -0.351,-0.352l-0,-16.301c-0,-0.194 0.157,-0.351 0.351,-0.351l3.124,-0c0.193,-0 0.351,0.157 0.351,0.351Z" style="fill:#fff;"/><g><path d="M12.115,9.661l0.769,14.674c0.009,0.168 -0.12,0.312 -0.288,0.32l-2.788,0.146c-0.168,0.009 -0.311,-0.12 -0.32,-0.288l-0.769,-14.674c-0.009,-0.168 0.12,-0.311 0.288,-0.32l2.788,-0.146c0.168,-0.009 0.311,0.12 0.32,0.288Z" style="fill:#fff;"/></g><g><path d="M16.061,8.298l1.368,13.016c0.015,0.142 -0.088,0.269 -0.23,0.283l-2.447,0.258c-0.141,0.014 -0.268,-0.088 -0.283,-0.23l-1.368,-13.016c-0.015,-0.141 0.088,-0.268 0.229,-0.283l2.448,-0.257c0.141,-0.015 0.268,0.088 0.283,0.229Z" style="fill:#fff;"/></g><g><path d="M19.665,6.967l1.796,11.34c0.018,0.115 -0.06,0.223 -0.175,0.241l-2.103,0.333c-0.115,0.018 -0.223,-0.06 -0.241,-0.175l-1.796,-11.34c-0.018,-0.115 0.06,-0.223 0.175,-0.241l2.103,-0.333c0.115,-0.019 0.223,0.06 0.241,0.175Z" style="fill:#fff;"/></g><g><path d="M22.93,5.661l2.053,9.658c0.018,0.089 -0.038,0.176 -0.127,0.195l-1.758,0.373c-0.088,0.019 -0.176,-0.037 -0.194,-0.126l-2.053,-9.659c-0.019,-0.088 0.037,-0.175 0.126,-0.194l1.758,-0.374c0.089,-0.019 0.176,0.038 0.195,0.127Z" style="fill:#fff;"/></g><g><path d="M25.856,4.372l2.14,7.986c0.017,0.063 -0.02,0.127 -0.083,0.144l-1.416,0.379c-0.062,0.017 -0.127,-0.02 -0.143,-0.083l-2.14,-7.986c-0.017,-0.062 0.02,-0.126 0.082,-0.143l1.417,-0.38c0.062,-0.016 0.126,0.021 0.143,0.083Z" style="fill:#fff;"/></g></g></g></svg>